<svg version="1.1" xmlns="http://www.w3.org/2000/svg" xmlns:xlink="http://www.w3.org/1999/xlink"
    width="1920" height="1080" viewBox="0 0 1920 1080">
    <defs></defs>
    <g>
        <rect fill="rgb(25,45,56)" stroke="none" x="0" y="0" width="1920" height="1080"
            transform="matrix(1 0 0 1 0 0)" fill-opacity="1"></rect>
        <g>
            <g>
                <path fill="none" stroke="none"></path>
                <path fill="rgb(36,64,80)" stroke="none" paint-order="stroke fill markers"
                    d=" M 2046.6782569907016 2.648699957275312 L 2906.6303526853253 1395.5777696196271 L 1721.3217430092984 2127.3513000427247 L 861.3696473146747 734.4222303803729 L 2046.6782569907016 2.648699957275312 Z"
                    fill-opacity="0"></path>
                <path fill="none" stroke="none"></path>
                <path fill="rgb(5,229,96)" stroke="none" paint-order="stroke fill markers"
                    d=" M 2021.4456879726815 109.30617724204353 L 2799.9728754005573 1370.345200601607 L 1746.5543120273185 2020.6938227579565 L 968.0271245994429 759.6547993983929 L 2021.4456879726815 109.30617724204353 Z"
                    fill-opacity="0.16666666666666674"></path>
                <path fill="none" stroke="none"></path>
                <path fill="rgb(5,229,96)" stroke="none" paint-order="stroke fill markers"
                    d=" M 1996.2131189546615 215.96365452681175 L 2693.315398115789 1345.112631583587 L 1771.7868810453385 1914.0363454731882 L 1074.6846018842111 784.887368416413 L 1996.2131189546615 215.96365452681175 Z"
                    fill-opacity="0.33333333333333337"></path>
                <path fill="none" stroke="none"></path>
                <path fill="rgb(5,229,96)" stroke="none" paint-order="stroke fill markers"
                    d=" M 1970.9805499366414 322.62113181157997 L 2586.6579208310204 1319.8800625655667 L 1797.0194500633586 1807.37886818842 L 1181.3420791689794 810.1199374344333 L 1970.9805499366414 322.62113181157997 Z"
                    fill-opacity="0.5"></path>
                <path fill="none" stroke="none"></path>
                <path fill="rgb(5,229,96)" stroke="none" paint-order="stroke fill markers"
                    d=" M 1945.7479809186211 429.2786090963482 L 2480.0004435462524 1294.6474935475467 L 1822.2520190813789 1700.7213909036518 L 1287.9995564537476 835.3525064524533 L 1945.7479809186211 429.2786090963482 Z"
                    fill-opacity="0.6666666666666667"></path>
                <path fill="none" stroke="none"></path>
                <path fill="rgb(5,229,96)" stroke="none" paint-order="stroke fill markers"
                    d=" M 1920.515411900601 535.9360863811164 L 2373.342966261484 1269.4149245295266 L 1847.484588099399 1594.0639136188836 L 1394.657033738516 860.5850754704734 L 1920.515411900601 535.9360863811164 Z"
                    fill-opacity="0.8333333333333334"></path>
                <path fill="none" stroke="none"></path>
                <path fill="rgb(5,229,96)" stroke="none" paint-order="stroke fill markers"
                    d=" M 1895.282842882581 642.5935636658847 L 2266.685488976716 1244.1823555115063 L 1872.717157117419 1487.4064363341154 L 1501.314511023284 885.8176444884936 L 1895.282842882581 642.5935636658847 Z"
                    fill-opacity="1"></path>
                <path fill="none" stroke="none"></path>
                <path fill="rgb(5,229,96)" stroke="none" paint-order="stroke fill markers"
                    d=" M 1895.282842882581 642.5935636658847 L 2266.685488976716 1244.1823555115063 L 1872.717157117419 1487.4064363341154 L 1501.314511023284 885.8176444884936 L 1895.282842882581 642.5935636658847 Z"
                    fill-opacity="1"></path>
            </g>
            <g>
                <path fill="none" stroke="none"></path>
                <path fill="rgb(5,229,96)" stroke="none" paint-order="stroke fill markers"
                    d=" M 249.7209986617395 133.09006224097402 L 761.909937759026 962.7209986617395 L -67.72099866173949 1474.909937759026 L -579.909937759026 645.2790013382605 L 249.7209986617395 133.09006224097402 Z"
                    fill-opacity="0"></path>
                <path fill="none" stroke="none"></path>
                <path fill="rgb(5,229,96)" stroke="none" paint-order="stroke fill markers"
                    d=" M 224.48842964371934 239.74753952574224 L 655.2524604742578 937.4884296437193 L -42.48842964371934 1368.2524604742578 L -473.25246047425776 670.5115703562807 L 224.48842964371934 239.74753952574224 Z"
                    fill-opacity="0.19999999999999996"></path>
                <path fill="none" stroke="none"></path>
                <path fill="rgb(5,229,96)" stroke="none" paint-order="stroke fill markers"
                    d=" M 199.25586062569928 346.40501681051035 L 548.5949831894897 912.2558606256993 L -17.255860625699285 1261.5949831894895 L -366.59498318948965 695.7441393743007 L 199.25586062569928 346.40501681051035 Z"
                    fill-opacity="0.3999999999999999"></path>
                <path fill="none" stroke="none"></path>
                <path fill="rgb(5,229,96)" stroke="none" paint-order="stroke fill markers"
                    d=" M 174.0232916076791 453.0624940952787 L 441.9375059047213 887.0232916076791 L 7.976708392320887 1154.9375059047213 L -259.9375059047213 720.9767083923209 L 174.0232916076791 453.0624940952787 Z"
                    fill-opacity="0.6"></path>
                <path fill="none" stroke="none"></path>
                <path fill="rgb(5,229,96)" stroke="none" paint-order="stroke fill markers"
                    d=" M 148.79072258965903 559.7199713800469 L 335.28002861995304 861.790722589659 L 33.20927741034099 1048.280028619953 L -153.28002861995304 746.209277410341 L 148.79072258965903 559.7199713800469 Z"
                    fill-opacity="0.8"></path>
                <path fill="none" stroke="none"></path>
                <path fill="rgb(5,229,96)" stroke="none" paint-order="stroke fill markers"
                    d=" M 123.55815357163887 666.3774486648151 L 228.62255133518482 836.5581535716389 L 58.44184642836113 941.6225513351849 L -46.62255133518482 771.4418464283611 L 123.55815357163887 666.3774486648151 Z"
                    fill-opacity="1"></path>
                <path fill="none" stroke="none"></path>
                <path fill="rgb(5,229,96)" stroke="none" paint-order="stroke fill markers"
                    d=" M 123.55815357163887 666.3774486648151 L 228.62255133518482 836.5581535716389 L 58.44184642836113 941.6225513351849 L -46.62255133518482 771.4418464283611 L 123.55815357163887 666.3774486648151 Z"
                    fill-opacity="1"></path>
            </g>
        </g>
    </g>
</svg>